STARTFONT 2.1
FONT -DEC-Terminal-Bold-R-Normal--28-280-75-75-C-160-DEC-DECtech
SIZE 28 75 75
FONTBOUNDINGBOX 16 30 0 -6

STARTPROPERTIES 24
FOUNDRY "DEC"
FAMILY_NAME "Terminal"
WEIGHT_NAME "Bold"
SLANT "R"
SETWIDTH_NAME "Normal"
ADD_STYLE_NAME ""
PIXEL_SIZE 28
POINT_SIZE 280
RESOLUTION_X 75
RESOLUTION_Y 75
SPACING "C"
AVERAGE_WIDTH 160
CHARSET_REGISTRY "DEC"
CHARSET_ENCODING "DECtech"
CAP_HEIGHT 18
COPYRIGHT "Copyright (c) 1991 Digital Equipment Corporation. All Rights Reserved."
_DEC_PRODUCTINFO "DECterm Fonts V2.2, 11-Nov-1991"
FULL_NAME "Terminal Bold Normal"
WEIGHT 10
X_HEIGHT -3
QUAD_WIDTH 16
DEFAULT_CHAR 159
FONT_DESCENT 6
FONT_ASCENT 24
ENDPROPERTIES

CHARS 182

STARTCHAR space
ENCODING 32
SWIDTH 570 0
DWIDTH 16 0
BBX 16 30 0 -6
BITMAP
0000
0000
0000
0000
0000
0000
0000
0000
0000
0000
0000
0000
0000
0000
0000
0000
0000
0000
0000
0000
0000
0000
0000
0000
0000
0000
0000
0000
0000
0000
ENDCHAR

STARTCHAR exclam
ENCODING 33
SWIDTH 570 0
DWIDTH 16 0
BBX 16 30 0 -6
BITMAP
0000
0000
0000
0000
0000
0000
0380
0380
0380
0380
0380
0380
0380
0380
0380
0380
0380
0380
0000
0000
0100
0380
0380
0100
0000
0000
0000
0000
0000
0000
ENDCHAR

STARTCHAR quotedbl
ENCODING 34
SWIDTH 570 0
DWIDTH 16 0
BBX 16 30 0 -6
BITMAP
0000
0000
0000
0000
0E38
0E38
0E38
0E38
0E38
0E38
0E38
0000
0000
0000
0000
0000
0000
0000
0000
0000
0000
0000
0000
0000
0000
0000
0000
0000
0000
0000
ENDCHAR

STARTCHAR numbersign
ENCODING 35
SWIDTH 570 0
DWIDTH 16 0
BBX 16 30 0 -6
BITMAP
0000
0000
0000
0000
0000
0000
0E38
0E38
0E38
0E38
7FFF
7FFF
7FFF
0E38
0E38
0E38
0E38
7FFF
7FFF
7FFF
0E38
0E38
0E38
0E38
0000
0000
0000
0000
0000
0000
ENDCHAR

STARTCHAR dollar
ENCODING 36
SWIDTH 570 0
DWIDTH 16 0
BBX 16 30 0 -6
BITMAP
0000
0000
0000
0000
0000
01C0
01C0
01C0
03E0
0FF8
1E3C
3C1C
3E00
3FE0
3FF8
1FFC
07FE
003E
381E
3C3E
1FFC
07F0
01C0
01C0
01C0
01C0
0000
0000
0000
0000
ENDCHAR

STARTCHAR percent
ENCODING 37
SWIDTH 570 0
DWIDTH 16 0
BBX 16 30 0 -6
BITMAP
0000
0000
0000
0000
0000
0007
7E0F
E71E
E71C
E738
E738
7E70
00E0
00E0
01C0
0380
0380
0700
0F7E
0EE7
1CE7
38E7
38E7
707E
7000
0000
0000
0000
0000
0000
ENDCHAR

STARTCHAR ampersand
ENCODING 38
SWIDTH 570 0
DWIDTH 16 0
BBX 16 30 0 -6
BITMAP
0000
0000
0000
0000
0000
0000
0780
1FE0
1FE0
3CF0
3870
3C70
1CE0
1FE0
0FCF
1F8E
3FCE
3DFC
78FC
7878
7CF8
7FFC
3FDE
1F0F
0000
0000
0000
0000
0000
0000
ENDCHAR

STARTCHAR quoteright
ENCODING 39
SWIDTH 570 0
DWIDTH 16 0
BBX 16 30 0 -6
BITMAP
0000
0000
0000
0000
01C0
01C0
01C0
01C0
0380
0700
0000
0000
0000
0000
0000
0000
0000
0000
0000
0000
0000
0000
0000
0000
0000
0000
0000
0000
0000
0000
ENDCHAR

STARTCHAR parenleft
ENCODING 40
SWIDTH 570 0
DWIDTH 16 0
BBX 16 30 0 -6
BITMAP
0000
0000
0000
0000
0000
001C
0078
00F0
00E0
01C0
01C0
0380
0380
0380
0380
0380
0380
0380
0380
01C0
01C0
00E0
00F0
0078
001C
0000
0000
0000
0000
0000
ENDCHAR

STARTCHAR parenright
ENCODING 41
SWIDTH 570 0
DWIDTH 16 0
BBX 16 30 0 -6
BITMAP
0000
0000
0000
0000
0000
1C00
0F00
0780
0380
01C0
01C0
00E0
00E0
00E0
00E0
00E0
00E0
00E0
00E0
01C0
01C0
0380
0780
0F00
1C00
0000
0000
0000
0000
0000
ENDCHAR

STARTCHAR asterisk
ENCODING 42
SWIDTH 570 0
DWIDTH 16 0
BBX 16 30 0 -6
BITMAP
0000
0000
0000
0000
0000
0000
0E38
0E38
0770
0360
1BEC
3FFE
1FFC
03E0
0360
0630
0E38
0E38
0000
0000
0000
0000
0000
0000
0000
0000
0000
0000
0000
0000
ENDCHAR

STARTCHAR plus
ENCODING 43
SWIDTH 570 0
DWIDTH 16 0
BBX 16 30 0 -6
BITMAP
0000
0000
0000
0000
0000
0000
01C0
01C0
01C0
01C0
01C0
01C0
3FFE
3FFE
3FFE
01C0
01C0
01C0
01C0
01C0
01C0
0000
0000
0000
0000
0000
0000
0000
0000
0000
ENDCHAR

STARTCHAR comma
ENCODING 44
SWIDTH 570 0
DWIDTH 16 0
BBX 16 30 0 -6
BITMAP
0000
0000
0000
0000
0000
0000
0000
0000
0000
0000
0000
0000
0000
0000
0000
0000
0000
0000
0000
0000
0000
01C0
01C0
01C0
0380
0700
0C00
0000
0000
0000
ENDCHAR

STARTCHAR minus
ENCODING 45
SWIDTH 570 0
DWIDTH 16 0
BBX 16 30 0 -6
BITMAP
0000
0000
0000
0000
0000
0000
0000
0000
0000
0000
0000
0000
3FFE
3FFE
3FFE
0000
0000
0000
0000
0000
0000
0000
0000
0000
0000
0000
0000
0000
0000
0000
ENDCHAR

STARTCHAR period
ENCODING 46
SWIDTH 570 0
DWIDTH 16 0
BBX 16 30 0 -6
BITMAP
0000
0000
0000
0000
0000
0000
0000
0000
0000
0000
0000
0000
0000
0000
0000
0000
0000
0000
0000
0000
0180
03C0
03C0
0180
0000
0000
0000
0000
0000
0000
ENDCHAR

STARTCHAR slash
ENCODING 47
SWIDTH 570 0
DWIDTH 16 0
BBX 16 30 0 -6
BITMAP
0000
0000
0000
0000
0000
001C
001C
0038
0038
0070
0070
00E0
00E0
01C0
01C0
0180
0380
0380
0700
0700
0E00
0C00
1C00
3800
3800
0000
0000
0000
0000
0000
ENDCHAR

STARTCHAR zero
ENCODING 48
SWIDTH 570 0
DWIDTH 16 0
BBX 16 30 0 -6
BITMAP
0000
0000
0000
0000
0000
0000
07E0
0FF0
1FF8
1E78
3C3C
3C3C
3C3C
3C3C
3C3C
3C3C
3C3C
3C3C
3C3C
3C3C
1E78
1FF8
0FF0
07E0
0000
0000
0000
0000
0000
0000
ENDCHAR

STARTCHAR one
ENCODING 49
SWIDTH 570 0
DWIDTH 16 0
BBX 16 30 0 -6
BITMAP
0000
0000
0000
0000
0000
0000
03C0
07C0
0FC0
1FC0
3BC0
33C0
03C0
03C0
03C0
03C0
03C0
03C0
03C0
03C0
03C0
1FF8
1FF8
1FF8
0000
0000
0000
0000
0000
0000
ENDCHAR

STARTCHAR two
ENCODING 50
SWIDTH 570 0
DWIDTH 16 0
BBX 16 30 0 -6
BITMAP
0000
0000
0000
0000
0000
0000
0FE0
1FF8
3FF8
3C7C
383C
183C
0078
00F8
01F0
03E0
07C0
0F80
1F00
1E04
3C0C
3FFC
3FFC
3FFC
0000
0000
0000
0000
0000
0000
ENDCHAR

STARTCHAR three
ENCODING 51
SWIDTH 570 0
DWIDTH 16 0
BBX 16 30 0 -6
BITMAP
0000
0000
0000
0000
0000
0000
0FE0
3FF8
3FFC
387C
303C
0038
0078
0FF0
0FE0
0FF8
0078
003C
303C
703C
787C
7FF8
3FF0
0FC0
0000
0000
0000
0000
0000
0000
ENDCHAR

STARTCHAR four
ENCODING 52
SWIDTH 570 0
DWIDTH 16 0
BBX 16 30 0 -6
BITMAP
0000
0000
0000
0000
0000
0000
0038
0078
00F8
01F8
03F8
0778
0E78
0C78
1C78
3878
7078
7FFE
7FFE
7FFE
0078
0078
0078
0078
0000
0000
0000
0000
0000
0000
ENDCHAR

STARTCHAR five
ENCODING 53
SWIDTH 570 0
DWIDTH 16 0
BBX 16 30 0 -6
BITMAP
0000
0000
0000
0000
0000
0000
3FF8
3FF8
3FF8
3C00
3C00
3C00
3DF0
3FF8
3FF8
3E7C
003C
003C
003C
303C
387C
3FF8
3FF8
0FE0
0000
0000
0000
0000
0000
0000
ENDCHAR

STARTCHAR six
ENCODING 54
SWIDTH 570 0
DWIDTH 16 0
BBX 16 30 0 -6
BITMAP
0000
0000
0000
0000
0000
0000
03F0
0FFC
1FFC
1E1C
3C0C
3C00
3DE0
3FF8
3FFC
3E3C
3C1E
3C1E
3C1E
3C1E
1E3C
1FFC
0FF8
03E0
0000
0000
0000
0000
0000
0000
ENDCHAR

STARTCHAR seven
ENCODING 55
SWIDTH 570 0
DWIDTH 16 0
BBX 16 30 0 -6
BITMAP
0000
0000
0000
0000
0000
0000
3FFC
3FFC
3FFC
001C
003C
007C
00F8
01F0
03E0
07C0
0780
0F00
0F00
1E00
1E00
1E00
1E00
1E00
0000
0000
0000
0000
0000
0000
ENDCHAR

STARTCHAR eight
ENCODING 56
SWIDTH 570 0
DWIDTH 16 0
BBX 16 30 0 -6
BITMAP
0000
0000
0000
0000
0000
0000
07C0
1FF0
3C78
3C78
3C78
1C70
1FF0
07C0
1FF0
3FF8
7C7C
783C
783C
783C
3C78
3FF8
1FF0
07C0
0000
0000
0000
0000
0000
0000
ENDCHAR

STARTCHAR nine
ENCODING 57
SWIDTH 570 0
DWIDTH 16 0
BBX 16 30 0 -6
BITMAP
0000
0000
0000
0000
0000
0000
07E0
1FF8
3FF8
3C7C
783C
783C
783C
783C
3C7C
3FFC
1FFC
07BC
003C
303C
3878
3FF8
1FF0
0FC0
0000
0000
0000
0000
0000
0000
ENDCHAR

STARTCHAR colon
ENCODING 58
SWIDTH 570 0
DWIDTH 16 0
BBX 16 30 0 -6
BITMAP
0000
0000
0000
0000
0000
0000
0000
0000
0000
0000
0000
0000
0180
03C0
03C0
0180
0000
0000
0000
0000
0180
03C0
03C0
0180
0000
0000
0000
0000
0000
0000
ENDCHAR

STARTCHAR semicolon
ENCODING 59
SWIDTH 570 0
DWIDTH 16 0
BBX 16 30 0 -6
BITMAP
0000
0000
0000
0000
0000
0000
0000
0000
0000
0000
0000
0000
0180
03C0
03C0
0180
0000
0000
0000
0000
0000
0380
0380
0380
0700
0E00
1800
0000
0000
0000
ENDCHAR

STARTCHAR less
ENCODING 60
SWIDTH 570 0
DWIDTH 16 0
BBX 16 30 0 -6
BITMAP
0000
0000
0000
0000
0000
0000
0000
003C
0078
00F0
01E0
03C0
0780
0F00
1E00
1E00
0F00
0780
03C0
01E0
00F0
0078
003C
0000
0000
0000
0000
0000
0000
0000
ENDCHAR

STARTCHAR equal
ENCODING 61
SWIDTH 570 0
DWIDTH 16 0
BBX 16 30 0 -6
BITMAP
0000
0000
0000
0000
0000
0000
0000
0000
0000
0000
7FFE
7FFE
7FFE
0000
0000
0000
7FFE
7FFE
7FFE
0000
0000
0000
0000
0000
0000
0000
0000
0000
0000
0000
ENDCHAR

STARTCHAR greater
ENCODING 62
SWIDTH 570 0
DWIDTH 16 0
BBX 16 30 0 -6
BITMAP
0000
0000
0000
0000
0000
0000
0000
1E00
0F00
0780
03C0
01E0
00F0
0078
003C
003C
0078
00F0
01E0
03C0
0780
0F00
1E00
0000
0000
0000
0000
0000
0000
0000
ENDCHAR

STARTCHAR question
ENCODING 63
SWIDTH 570 0
DWIDTH 16 0
BBX 16 30 0 -6
BITMAP
0000
0000
0000
0000
0000
0000
07E0
0FF8
1C7C
1C3C
183C
003C
0078
00F0
01E0
01C0
0380
0380
0380
0000
0000
0180
03C0
0180
0000
0000
0000
0000
0000
0000
ENDCHAR

STARTCHAR at
ENCODING 64
SWIDTH 570 0
DWIDTH 16 0
BBX 16 30 0 -6
BITMAP
0000
0000
0000
0000
0000
0000
07F8
1FFC
1C1C
380E
380E
387E
39FE
3B8E
3B8E
3B8E
39FE
38EE
3800
3800
1C06
1FFE
0FFC
03F8
0000
0000
0000
0000
0000
0000
ENDCHAR

STARTCHAR A
ENCODING 65
SWIDTH 570 0
DWIDTH 16 0
BBX 16 30 0 -6
BITMAP
0000
0000
0000
0000
0000
0000
0180
03C0
03C0
07E0
07E0
0E70
0E70
1E78
1C38
3C3C
3FFC
3FFC
7FFE
781E
781E
F00F
F00F
F00F
0000
0000
0000
0000
0000
0000
ENDCHAR

STARTCHAR B
ENCODING 66
SWIDTH 570 0
DWIDTH 16 0
BBX 16 30 0 -6
BITMAP
0000
0000
0000
0000
0000
0000
7FE0
7FF8
3FFC
3C3C
3C3C
3C3C
3C78
3FF0
3FE0
3FF8
3C3C
3C1E
3C1E
3C1E
3C3E
3FFC
7FF8
7FE0
0000
0000
0000
0000
0000
0000
ENDCHAR

STARTCHAR C
ENCODING 67
SWIDTH 570 0
DWIDTH 16 0
BBX 16 30 0 -6
BITMAP
0000
0000
0000
0000
0000
0000
03F0
0FFC
1FFC
1F1E
3E0E
3C00
3C00
3C00
3C00
3C00
3C00
3C00
3C00
3E0E
1F1E
1FFC
0FF8
03E0
0000
0000
0000
0000
0000
0000
ENDCHAR

STARTCHAR D
ENCODING 68
SWIDTH 570 0
DWIDTH 16 0
BBX 16 30 0 -6
BITMAP
0000
0000
0000
0000
0000
0000
7FE0
7FF8
3FFC
3C3C
3C1E
3C1E
3C1E
3C1E
3C1E
3C1E
3C1E
3C1E
3C1E
3C1E
3C3C
3FFC
7FF8
7FE0
0000
0000
0000
0000
0000
0000
ENDCHAR

STARTCHAR E
ENCODING 69
SWIDTH 570 0
DWIDTH 16 0
BBX 16 30 0 -6
BITMAP
0000
0000
0000
0000
0000
0000
3FFE
3FFE
1FFE
1E06
1E02
1E00
1E00
1FF8
1FF8
1FF8
1E00
1E00
1E00
1E02
1E06
1FFE
3FFE
3FFE
0000
0000
0000
0000
0000
0000
ENDCHAR

STARTCHAR F
ENCODING 70
SWIDTH 570 0
DWIDTH 16 0
BBX 16 30 0 -6
BITMAP
0000
0000
0000
0000
0000
0000
1FFE
1FFE
0FFE
0F06
0F02
0F00
0F00
0F00
0FF8
0FF8
0FF8
0F00
0F00
0F00
0F00
0F00
1FC0
1FC0
0000
0000
0000
0000
0000
0000
ENDCHAR

STARTCHAR G
ENCODING 71
SWIDTH 570 0
DWIDTH 16 0
BBX 16 30 0 -6
BITMAP
0000
0000
0000
0000
0000
0000
03F0
0FFC
1FFC
1E1E
3C1E
3C00
3C00
3C00
3C00
3C7E
3C7E
3C7E
3C0E
3E0E
1F1E
1FFE
0FFE
03EE
0000
0000
0000
0000
0000
0000
ENDCHAR

STARTCHAR H
ENCODING 72
SWIDTH 570 0
DWIDTH 16 0
BBX 16 30 0 -6
BITMAP
0000
0000
0000
0000
0000
0000
7E3F
7E3F
3C1E
3C1E
3C1E
3C1E
3C1E
3FFE
3FFE
3FFE
3C1E
3C1E
3C1E
3C1E
3C1E
3C1E
7E3F
7E3F
0000
0000
0000
0000
0000
0000
ENDCHAR

STARTCHAR I
ENCODING 73
SWIDTH 570 0
DWIDTH 16 0
BBX 16 30 0 -6
BITMAP
0000
0000
0000
0000
0000
0000
1FF8
1FF8
03C0
03C0
03C0
03C0
03C0
03C0
03C0
03C0
03C0
03C0
03C0
03C0
03C0
03C0
1FF8
1FF8
0000
0000
0000
0000
0000
0000
ENDCHAR

STARTCHAR J
ENCODING 74
SWIDTH 570 0
DWIDTH 16 0
BBX 16 30 0 -6
BITMAP
0000
0000
0000
0000
0000
0000
07FC
07FC
003C
003C
003C
003C
003C
003C
003C
003C
003C
003C
383C
383C
3C78
1FF8
1FF0
07C0
0000
0000
0000
0000
0000
0000
ENDCHAR

STARTCHAR K
ENCODING 75
SWIDTH 570 0
DWIDTH 16 0
BBX 16 30 0 -6
BITMAP
0000
0000
0000
0000
0000
0000
7E1E
7C3E
3C78
3CF0
3DE0
3DC0
3F80
3F80
3F80
3FC0
3FC0
3DE0
3CF0
3CF0
3C78
3C3C
7E7F
7E7F
0000
0000
0000
0000
0000
0000
ENDCHAR

STARTCHAR L
ENCODING 76
SWIDTH 570 0
DWIDTH 16 0
BBX 16 30 0 -6
BITMAP
0000
0000
0000
0000
0000
0000
1F80
1F80
0F00
0F00
0F00
0F00
0F00
0F00
0F00
0F00
0F00
0F00
0F00
0F02
0F06
0FFE
1FFE
1FFE
0000
0000
0000
0000
0000
0000
ENDCHAR

STARTCHAR M
ENCODING 77
SWIDTH 570 0
DWIDTH 16 0
BBX 16 30 0 -6
BITMAP
0000
0000
0000
0000
0000
0000
F81F
F81F
7C3E
7C3E
7C3E
7E7E
7E7E
7E7E
7FFE
7BDE
7BDE
7BDE
799E
799E
781E
781E
F81F
F81F
0000
0000
0000
0000
0000
0000
ENDCHAR

STARTCHAR N
ENCODING 78
SWIDTH 570 0
DWIDTH 16 0
BBX 16 30 0 -6
BITMAP
0000
0000
0000
0000
0000
0000
7C3F
7C3F
3E1E
3E1E
3F1E
3F1E
3F9E
3F9E
3DDE
3DDE
3CFE
3CFE
3C7E
3C7E
3C3E
3C3E
7E1E
7E1E
0000
0000
0000
0000
0000
0000
ENDCHAR

STARTCHAR O
ENCODING 79
SWIDTH 570 0
DWIDTH 16 0
BBX 16 30 0 -6
BITMAP
0000
0000
0000
0000
0000
0000
03E0
0FF8
1FFC
1E3C
3C1E
3C1E
3C1E
3C1E
3C1E
3C1E
3C1E
3C1E
3C1E
3C1E
1E3C
1FFC
0FF8
03E0
0000
0000
0000
0000
0000
0000
ENDCHAR

STARTCHAR P
ENCODING 80
SWIDTH 570 0
DWIDTH 16 0
BBX 16 30 0 -6
BITMAP
0000
0000
0000
0000
0000
0000
3FF8
3FFE
1FFE
1E1F
1E0F
1E0F
1E0F
1E0F
1E1F
1FFE
1FFC
1FF0
1E00
1E00
1E00
1E00
3F00
3F00
0000
0000
0000
0000
0000
0000
ENDCHAR

STARTCHAR Q
ENCODING 81
SWIDTH 570 0
DWIDTH 16 0
BBX 16 30 0 -6
BITMAP
0000
0000
0000
0000
0000
0000
03E0
0FF8
1FFC
1E3C
3C1E
3C1E
3C1E
3C1E
3C1E
3C1E
3C1E
3C1E
3C1E
3C1E
1E7C
1FBC
0FF8
03FC
000E
0007
0000
0000
0000
0000
ENDCHAR

STARTCHAR R
ENCODING 82
SWIDTH 570 0
DWIDTH 16 0
BBX 16 30 0 -6
BITMAP
0000
0000
0000
0000
0000
0000
7FE0
7FF8
3FFC
3C7C
3C3C
3C3C
3C3C
3C78
3FF0
3FE0
3FE0
3CF0
3C78
3C78
3C3C
3C3C
7E1E
7E1F
0000
0000
0000
0000
0000
0000
ENDCHAR

STARTCHAR S
ENCODING 83
SWIDTH 570 0
DWIDTH 16 0
BBX 16 30 0 -6
BITMAP
0000
0000
0000
0000
0000
0000
07F0
1FFC
1FFC
3E1E
3C0E
3E00
3F80
1FE0
0FF8
03FC
00FE
003E
001E
381E
3C3E
3FFC
1FF8
07E0
0000
0000
0000
0000
0000
0000
ENDCHAR

STARTCHAR T
ENCODING 84
SWIDTH 570 0
DWIDTH 16 0
BBX 16 30 0 -6
BITMAP
0000
0000
0000
0000
0000
0000
3FFF
3FFF
3FFF
31E3
21E1
01E0
01E0
01E0
01E0
01E0
01E0
01E0
01E0
01E0
01E0
01E0
07F8
07F8
0000
0000
0000
0000
0000
0000
ENDCHAR

STARTCHAR U
ENCODING 85
SWIDTH 570 0
DWIDTH 16 0
BBX 16 30 0 -6
BITMAP
0000
0000
0000
0000
0000
0000
7C1F
7C1F
3C1E
3C1E
3C1E
3C1E
3C1E
3C1E
3C1E
3C1E
3C1E
3C1E
3C1E
3C1E
1E3C
1FFC
0FF8
03E0
0000
0000
0000
0000
0000
0000
ENDCHAR

STARTCHAR V
ENCODING 86
SWIDTH 570 0
DWIDTH 16 0
BBX 16 30 0 -6
BITMAP
0000
0000
0000
0000
0000
0000
780F
780F
380E
3C1E
3C1E
3C1E
1C1C
1C1C
1E3C
0E38
0E38
0F78
0F78
0770
07F0
03E0
03E0
01C0
0000
0000
0000
0000
0000
0000
ENDCHAR

STARTCHAR W
ENCODING 87
SWIDTH 570 0
DWIDTH 16 0
BBX 16 30 0 -6
BITMAP
0000
0000
0000
0000
0000
0000
F00F
F00F
700E
700E
700E
718E
718E
718E
73CE
73CE
73CE
77EE
7E7E
7E7E
3C3C
381C
381C
300C
0000
0000
0000
0000
0000
0000
ENDCHAR

STARTCHAR X
ENCODING 88
SWIDTH 570 0
DWIDTH 16 0
BBX 16 30 0 -6
BITMAP
0000
0000
0000
0000
0000
0000
781E
3C3C
3C3C
1E78
1E70
0FF0
07E0
07E0
03C0
07E0
0FF0
0E70
1E78
1C38
3C3C
3C3C
781E
781E
0000
0000
0000
0000
0000
0000
ENDCHAR

STARTCHAR Y
ENCODING 89
SWIDTH 570 0
DWIDTH 16 0
BBX 16 30 0 -6
BITMAP
0000
0000
0000
0000
0000
0000
F00F
F81F
781E
3C3C
1C38
1E78
0FF0
07E0
07E0
03C0
03C0
03C0
03C0
03C0
03C0
03C0
0FF0
0FF0
0000
0000
0000
0000
0000
0000
ENDCHAR

STARTCHAR Z
ENCODING 90
SWIDTH 570 0
DWIDTH 16 0
BBX 16 30 0 -6
BITMAP
0000
0000
0000
0000
0000
0000
3FFC
3FFC
3FFC
3078
20F8
00F0
01E0
03E0
03C0
0780
0F80
0F00
1E00
1E04
3C0C
3FFC
3FFC
3FFC
0000
0000
0000
0000
0000
0000
ENDCHAR

STARTCHAR bracketleft
ENCODING 91
SWIDTH 570 0
DWIDTH 16 0
BBX 16 30 0 -6
BITMAP
0000
0000
0000
0000
0000
01FC
01FC
01E0
01E0
01E0
01E0
01E0
01E0
01E0
01E0
01E0
01E0
01E0
01E0
01E0
01E0
01E0
01E0
01FC
01FC
0000
0000
0000
0000
0000
ENDCHAR

STARTCHAR backslash
ENCODING 92
SWIDTH 570 0
DWIDTH 16 0
BBX 16 30 0 -6
BITMAP
0000
0000
0000
0000
0000
3800
3800
1C00
1C00
0E00
0E00
0700
0700
0380
0380
0180
01C0
01C0
00E0
00E0
0070
0038
0038
001C
001C
0000
0000
0000
0000
0000
ENDCHAR

STARTCHAR bracketright
ENCODING 93
SWIDTH 570 0
DWIDTH 16 0
BBX 16 30 0 -6
BITMAP
0000
0000
0000
0000
0000
1FC0
1FC0
03C0
03C0
03C0
03C0
03C0
03C0
03C0
03C0
03C0
03C0
03C0
03C0
03C0
03C0
03C0
03C0
1FC0
1FC0
0000
0000
0000
0000
0000
ENDCHAR

STARTCHAR asciicircum
ENCODING 94
SWIDTH 570 0
DWIDTH 16 0
BBX 16 30 0 -6
BITMAP
0000
0000
0000
0000
0000
0000
0000
0000
0000
0000
0000
03C0
07E0
0FF0
1E78
3C3C
0000
0000
0000
0000
0000
0000
0000
0000
0000
0000
0000
0000
0000
0000
ENDCHAR

STARTCHAR ldblank
ENCODING 95
SWIDTH 570 0
DWIDTH 16 0
BBX 16 30 0 -6
BITMAP
0000
0000
0000
0000
0000
0000
0000
0000
0000
0000
0000
0000
0000
0000
0000
0000
0000
0000
0000
0000
0000
0000
0000
0000
0000
0000
0000
0000
0000
0000
ENDCHAR

STARTCHAR diamond
ENCODING 96
SWIDTH 570 0
DWIDTH 16 0
BBX 16 30 0 -6
BITMAP
0000
0000
0000
0000
0000
0000
0000
0000
0000
0000
0080
01C0
03E0
07F0
0FF8
1FFC
3FFE
7FFF
7FFF
7FFF
3FFE
1FFC
0FF8
07F0
03E0
01C0
0080
0000
0000
0000
ENDCHAR

STARTCHAR checkerboard
ENCODING 97
SWIDTH 570 0
DWIDTH 16 0
BBX 16 30 0 -6
BITMAP
AAAA
5555
AAAA
5555
AAAA
5555
AAAA
5555
AAAA
5555
AAAA
5555
AAAA
5555
AAAA
5555
AAAA
5555
AAAA
5555
AAAA
5555
AAAA
5555
AAAA
5555
AAAA
5555
AAAA
5555
ENDCHAR

STARTCHAR HT
ENCODING 98
SWIDTH 570 0
DWIDTH 16 0
BBX 16 30 0 -6
BITMAP
0000
0000
0000
0000
38E0
38E0
38E0
38E0
3FE0
3FE0
3FE0
38E0
38E0
38E0
0000
0000
07FE
07FE
07FE
00E0
00E0
00E0
00E0
00E0
00E0
00E0
0000
0000
0000
0000
ENDCHAR

STARTCHAR FF
ENCODING 99
SWIDTH 570 0
DWIDTH 16 0
BBX 16 30 0 -6
BITMAP
0000
0000
0000
0000
1FC0
1FC0
1C00
1C00
1FC0
1FC0
1C00
1C00
1C00
1C00
0000
0000
01FC
01FC
01C0
01C0
01F8
01F8
01C0
01C0
01C0
01C0
0000
0000
0000
0000
ENDCHAR

STARTCHAR CR
ENCODING 100
SWIDTH 570 0
DWIDTH 16 0
BBX 16 30 0 -6
BITMAP
0000
0000
0000
0000
07E0
1FE0
3C00
3800
3800
3800
3800
3C00
1FE0
07E0
0000
0000
03F8
03FC
038E
038E
038C
03F8
03F8
039C
038E
0386
0000
0000
0000
0000
ENDCHAR

STARTCHAR LF
ENCODING 101
SWIDTH 570 0
DWIDTH 16 0
BBX 16 30 0 -6
BITMAP
0000
0000
0000
0000
3800
3800
3800
3800
3800
3800
3800
3FC0
3FC0
3FC0
0000
0000
01FE
01FE
01FE
01C0
01C0
01FC
01FC
01C0
01C0
01C0
0000
0000
0000
0000
ENDCHAR

STARTCHAR degree
ENCODING 102
SWIDTH 570 0
DWIDTH 16 0
BBX 16 30 0 -6
BITMAP
0000
0000
0000
0000
03C0
07E0
0E70
0E70
0E70
07E0
03C0
0000
0000
0000
0000
0000
0000
0000
0000
0000
0000
0000
0000
0000
0000
0000
0000
0000
0000
0000
ENDCHAR

STARTCHAR plusminus
ENCODING 103
SWIDTH 570 0
DWIDTH 16 0
BBX 16 30 0 -6
BITMAP
0000
0000
0000
0000
0000
0000
01C0
01C0
01C0
01C0
01C0
3FFE
3FFE
3FFE
01C0
01C0
01C0
01C0
01C0
0000
0000
0000
3FFC
3FFC
3FFC
0000
0000
0000
0000
0000
ENDCHAR

STARTCHAR NL
ENCODING 104
SWIDTH 570 0
DWIDTH 16 0
BBX 16 30 0 -6
BITMAP
0000
0000
0000
0000
0000
7870
7C70
7E70
7670
7770
73F0
71F0
70F0
7070
0000
0000
0380
0380
0380
0380
0380
0380
0380
0380
03FC
03FC
0000
0000
0000
0000
ENDCHAR

STARTCHAR VT
ENCODING 105
SWIDTH 570 0
DWIDTH 16 0
BBX 16 30 0 -6
BITMAP
0000
0000
0000
0000
0000
3838
3838
1C70
1C70
0EE0
0EE0
07C0
0380
0100
0000
0000
0FFE
0FFE
0FFE
00E0
00E0
00E0
00E0
00E0
00E0
00E0
0000
0000
0000
0000
ENDCHAR

STARTCHAR ldcornsqlr
ENCODING 106
SWIDTH 570 0
DWIDTH 16 0
BBX 16 30 0 -6
BITMAP
0380
0380
0380
0380
0380
0380
0380
0380
0380
0380
0380
0380
0380
FF80
FF80
FF80
0000
0000
0000
0000
0000
0000
0000
0000
0000
0000
0000
0000
0000
0000
ENDCHAR

STARTCHAR ldcornsqur
ENCODING 107
SWIDTH 570 0
DWIDTH 16 0
BBX 16 30 0 -6
BITMAP
0000
0000
0000
0000
0000
0000
0000
0000
0000
0000
0000
0000
0000
FF80
FF80
FF80
0380
0380
0380
0380
0380
0380
0380
0380
0380
0380
0380
0380
0380
0380
ENDCHAR

STARTCHAR ldcornsqul
ENCODING 108
SWIDTH 570 0
DWIDTH 16 0
BBX 16 30 0 -6
BITMAP
0000
0000
0000
0000
0000
0000
0000
0000
0000
0000
0000
0000
0000
03FF
03FF
03FF
0380
0380
0380
0380
0380
0380
0380
0380
0380
0380
0380
0380
0380
0380
ENDCHAR

STARTCHAR ldcornsqll
ENCODING 109
SWIDTH 570 0
DWIDTH 16 0
BBX 16 30 0 -6
BITMAP
0380
0380
0380
0380
0380
0380
0380
0380
0380
0380
0380
0380
0380
03FF
03FF
03FF
0000
0000
0000
0000
0000
0000
0000
0000
0000
0000
0000
0000
0000
0000
ENDCHAR

STARTCHAR ldcross
ENCODING 110
SWIDTH 570 0
DWIDTH 16 0
BBX 16 30 0 -6
BITMAP
0380
0380
0380
0380
0380
0380
0380
0380
0380
0380
0380
0380
0380
FFFF
FFFF
FFFF
0380
0380
0380
0380
0380
0380
0380
0380
0380
0380
0380
0380
0380
0380
ENDCHAR

STARTCHAR ldscan1
ENCODING 111
SWIDTH 570 0
DWIDTH 16 0
BBX 16 30 0 -6
BITMAP
FFFF
FFFF
FFFF
0000
0000
0000
0000
0000
0000
0000
0000
0000
0000
0000
0000
0000
0000
0000
0000
0000
0000
0000
0000
0000
0000
0000
0000
0000
0000
0000
ENDCHAR

STARTCHAR ldscan3
ENCODING 112
SWIDTH 570 0
DWIDTH 16 0
BBX 16 30 0 -6
BITMAP
0000
0000
0000
0000
0000
0000
FFFF
FFFF
FFFF
0000
0000
0000
0000
0000
0000
0000
0000
0000
0000
0000
0000
0000
0000
0000
0000
0000
0000
0000
0000
0000
ENDCHAR

STARTCHAR ldhorizontal
ENCODING 113
SWIDTH 570 0
DWIDTH 16 0
BBX 16 30 0 -6
BITMAP
0000
0000
0000
0000
0000
0000
0000
0000
0000
0000
0000
0000
0000
FFFF
FFFF
FFFF
0000
0000
0000
0000
0000
0000
0000
0000
0000
0000
0000
0000
0000
0000
ENDCHAR

STARTCHAR ldscan7
ENCODING 114
SWIDTH 570 0
DWIDTH 16 0
BBX 16 30 0 -6
BITMAP
0000
0000
0000
0000
0000
0000
0000
0000
0000
0000
0000
0000
0000
0000
0000
0000
0000
0000
0000
0000
0000
FFFF
FFFF
FFFF
0000
0000
0000
0000
0000
0000
ENDCHAR

STARTCHAR ldscan9
ENCODING 115
SWIDTH 570 0
DWIDTH 16 0
BBX 16 30 0 -6
BITMAP
0000
0000
0000
0000
0000
0000
0000
0000
0000
0000
0000
0000
0000
0000
0000
0000
0000
0000
0000
0000
0000
0000
0000
0000
0000
0000
0000
FFFF
FFFF
FFFF
ENDCHAR

STARTCHAR ldteelft
ENCODING 116
SWIDTH 570 0
DWIDTH 16 0
BBX 16 30 0 -6
BITMAP
0380
0380
0380
0380
0380
0380
0380
0380
0380
0380
0380
0380
0380
03FF
03FF
03FF
0380
0380
0380
0380
0380
0380
0380
0380
0380
0380
0380
0380
0380
0380
ENDCHAR

STARTCHAR ldteert
ENCODING 117
SWIDTH 570 0
DWIDTH 16 0
BBX 16 30 0 -6
BITMAP
0380
0380
0380
0380
0380
0380
0380
0380
0380
0380
0380
0380
0380
FF80
FF80
FF80
0380
0380
0380
0380
0380
0380
0380
0380
0380
0380
0380
0380
0380
0380
ENDCHAR

STARTCHAR ldteebt
ENCODING 118
SWIDTH 570 0
DWIDTH 16 0
BBX 16 30 0 -6
BITMAP
0380
0380
0380
0380
0380
0380
0380
0380
0380
0380
0380
0380
0380
FFFF
FFFF
FFFF
0000
0000
0000
0000
0000
0000
0000
0000
0000
0000
0000
0000
0000
0000
ENDCHAR

STARTCHAR ldteetp
ENCODING 119
SWIDTH 570 0
DWIDTH 16 0
BBX 16 30 0 -6
BITMAP
0000
0000
0000
0000
0000
0000
0000
0000
0000
0000
0000
0000
0000
FFFF
FFFF
FFFF
0380
0380
0380
0380
0380
0380
0380
0380
0380
0380
0380
0380
0380
0380
ENDCHAR

STARTCHAR ldvertical
ENCODING 120
SWIDTH 570 0
DWIDTH 16 0
BBX 16 30 0 -6
BITMAP
0380
0380
0380
0380
0380
0380
0380
0380
0380
0380
0380
0380
0380
0380
0380
0380
0380
0380
0380
0380
0380
0380
0380
0380
0380
0380
0380
0380
0380
0380
ENDCHAR

STARTCHAR lessequal
ENCODING 121
SWIDTH 570 0
DWIDTH 16 0
BBX 16 30 0 -6
BITMAP
0000
0000
0000
0000
0000
0000
0000
0078
00F0
01E0
03C0
0780
0F00
1E00
0F00
0780
03C0
01E0
00F0
0078
0000
3FFC
3FFC
3FFC
0000
0000
0000
0000
0000
0000
ENDCHAR

STARTCHAR greaterequal
ENCODING 122
SWIDTH 570 0
DWIDTH 16 0
BBX 16 30 0 -6
BITMAP
0000
0000
0000
0000
0000
0000
0000
1E00
0F00
0780
03C0
01E0
00F0
0078
00F0
01E0
03C0
0780
0F00
1E00
0000
3FFC
3FFC
3FFC
0000
0000
0000
0000
0000
0000
ENDCHAR

STARTCHAR pi
ENCODING 123
SWIDTH 570 0
DWIDTH 16 0
BBX 16 30 0 -6
BITMAP
0000
0000
0000
0000
0000
0000
0000
0000
0000
0000
0000
7FFE
7FFE
1E78
1E78
1E78
1E78
1E78
1E78
1E78
1E78
1E78
7C78
7878
0000
0000
0000
0000
0000
0000
ENDCHAR

STARTCHAR notequal
ENCODING 124
SWIDTH 570 0
DWIDTH 16 0
BBX 16 30 0 -6
BITMAP
0000
0000
0000
0000
0000
0000
0000
000E
001C
0038
7FFE
7FFE
7FFE
00E0
01C0
0380
7FFE
7FFE
7FFE
1C00
3800
7000
0000
0000
0000
0000
0000
0000
0000
0000
ENDCHAR

STARTCHAR sterling
ENCODING 125
SWIDTH 570 0
DWIDTH 16 0
BBX 16 30 0 -6
BITMAP
0000
0000
0000
0000
0000
0000
03F0
07F8
0F9C
0F1C
0F00
0F00
0F00
0F00
3FF0
3FF0
0F00
0F00
0F00
0F02
0F86
1FFE
3FFE
79FC
0000
0000
0000
0000
0000
0000
ENDCHAR

STARTCHAR periodcentered
ENCODING 126
SWIDTH 570 0
DWIDTH 16 0
BBX 16 30 0 -6
BITMAP
0000
0000
0000
0000
0000
0000
0000
0000
0000
0000
0000
0000
03C0
03C0
03C0
03C0
0000
0000
0000
0000
0000
0000
0000
0000
0000
0000
0000
0000
0000
0000
ENDCHAR

STARTCHAR Error
ENCODING 159
SWIDTH 570 0
DWIDTH 16 0
BBX 16 30 0 -6
BITMAP
07F8
1FFE
3FFE
3F7F
7E3F
7E3F
7E3F
7E00
7E00
3F00
3F00
1F80
0FC0
0FE0
07E0
03F0
03F0
01F8
01F8
01F8
01F8
0000
0000
0000
01F8
03FC
03FC
03FC
01F8
0000
ENDCHAR

STARTCHAR space
ENCODING 160
SWIDTH 570 0
DWIDTH 16 0
BBX 16 30 0 -6
BITMAP
0000
0000
0000
0000
0000
0000
0000
0000
0000
0000
0000
0000
0000
0000
0000
0000
0000
0000
0000
0000
0000
0000
0000
0000
0000
0000
0000
0000
0000
0000
ENDCHAR

STARTCHAR ldradicalbt
ENCODING 161
SWIDTH 570 0
DWIDTH 16 0
BBX 16 30 0 -6
BITMAP
03C0
03C0
03C0
03C0
03C0
03C0
03C0
03C0
03C0
03C0
03C0
03C0
03C0
03C0
7BC0
7FC0
7FC0
7FC0
7FC0
0FC0
07C0
03C0
01C0
00C0
0000
0000
0000
0000
0000
0000
ENDCHAR

STARTCHAR ldradicaltp
ENCODING 162
SWIDTH 570 0
DWIDTH 16 0
BBX 16 30 0 -6
BITMAP
0000
0000
0000
0000
0000
0000
0000
0000
0000
0000
03FF
03FF
03FF
03FF
03C0
03C0
03C0
03C0
03C0
03C0
03C0
03C0
03C0
03C0
03C0
03C0
03C0
03C0
03C0
03C0
ENDCHAR

STARTCHAR ldhorizontal
ENCODING 163
SWIDTH 570 0
DWIDTH 16 0
BBX 16 30 0 -6
BITMAP
0000
0000
0000
0000
0000
0000
0000
0000
0000
0000
FFFF
FFFF
FFFF
0000
0000
0000
0000
0000
0000
0000
0000
0000
0000
0000
0000
0000
0000
0000
0000
0000
ENDCHAR

STARTCHAR ldintegraltp
ENCODING 164
SWIDTH 570 0
DWIDTH 16 0
BBX 16 30 0 -6
BITMAP
0000
0000
0000
0000
0000
0000
007C
00FE
01FF
01FF
03C3
03C3
03C0
03C0
03C0
03C0
03C0
03C0
03C0
03C0
03C0
03C0
03C0
03C0
03C0
03C0
03C0
03C0
03C0
03C0
ENDCHAR

STARTCHAR ldintegralbt
ENCODING 165
SWIDTH 570 0
DWIDTH 16 0
BBX 16 30 0 -6
BITMAP
03C0
03C0
03C0
03C0
03C0
03C0
03C0
03C0
03C0
03C0
03C0
03C0
03C0
03C0
03C0
03C0
E3C0
E3C0
FFC0
FF80
7F80
3F00
0000
0000
0000
0000
0000
0000
0000
0000
ENDCHAR

STARTCHAR ldvertical
ENCODING 166
SWIDTH 570 0
DWIDTH 16 0
BBX 16 30 0 -6
BITMAP
03C0
03C0
03C0
03C0
03C0
03C0
03C0
03C0
03C0
03C0
03C0
03C0
03C0
03C0
03C0
03C0
03C0
03C0
03C0
03C0
03C0
03C0
03C0
03C0
03C0
03C0
03C0
03C0
03C0
03C0
ENDCHAR

STARTCHAR ldbracketlfttp
ENCODING 167
SWIDTH 570 0
DWIDTH 16 0
BBX 16 30 0 -6
BITMAP
0000
0000
03FF
03FF
03FF
03FF
03C0
03C0
03C0
03C0
03C0
03C0
03C0
03C0
03C0
03C0
03C0
03C0
03C0
03C0
03C0
03C0
03C0
03C0
03C0
03C0
03C0
03C0
03C0
03C0
ENDCHAR

STARTCHAR ldbracketlftbt
ENCODING 168
SWIDTH 570 0
DWIDTH 16 0
BBX 16 30 0 -6
BITMAP
03C0
03C0
03C0
03C0
03C0
03C0
03C0
03C0
03C0
03C0
03C0
03C0
03C0
03C0
03C0
03C0
03C0
03C0
03C0
03C0
03C0
03C0
03C0
03C0
03FF
03FF
03FF
03FF
0000
0000
ENDCHAR

STARTCHAR ldbracketrttp
ENCODING 169
SWIDTH 570 0
DWIDTH 16 0
BBX 16 30 0 -6
BITMAP
0000
0000
3FC0
3FC0
3FC0
3FC0
03C0
03C0
03C0
03C0
03C0
03C0
03C0
03C0
03C0
03C0
03C0
03C0
03C0
03C0
03C0
03C0
03C0
03C0
03C0
03C0
03C0
03C0
03C0
03C0
ENDCHAR

STARTCHAR ldbracketrtbt
ENCODING 170
SWIDTH 570 0
DWIDTH 16 0
BBX 16 30 0 -6
BITMAP
03C0
03C0
03C0
03C0
03C0
03C0
03C0
03C0
03C0
03C0
03C0
03C0
03C0
03C0
03C0
03C0
03C0
03C0
03C0
03C0
03C0
03C0
03C0
03C0
3FC0
3FC0
3FC0
3FC0
0000
0000
ENDCHAR

STARTCHAR ldbracelfttp
ENCODING 171
SWIDTH 570 0
DWIDTH 16 0
BBX 16 30 0 -6
BITMAP
0000
0000
00FE
01FE
03FE
03FE
03E0
03C0
03C0
03C0
03C0
03C0
03C0
03C0
03C0
03C0
03C0
03C0
03C0
03C0
03C0
03C0
03C0
03C0
03C0
03C0
03C0
03C0
03C0
03C0
ENDCHAR

STARTCHAR ldbracelftbt
ENCODING 172
SWIDTH 570 0
DWIDTH 16 0
BBX 16 30 0 -6
BITMAP
03C0
03C0
03C0
03C0
03C0
03C0
03C0
03C0
03C0
03C0
03C0
03C0
03C0
03C0
03C0
03C0
03C0
03C0
03C0
03C0
03C0
03C0
03C0
03E0
03FE
03FE
01FE
00FE
0000
0000
ENDCHAR

STARTCHAR ldbracerttp
ENCODING 173
SWIDTH 570 0
DWIDTH 16 0
BBX 16 30 0 -6
BITMAP
0000
0000
7F00
7F80
7FC0
7FC0
07C0
03C0
03C0
03C0
03C0
03C0
03C0
03C0
03C0
03C0
03C0
03C0
03C0
03C0
03C0
03C0
03C0
03C0
03C0
03C0
03C0
03C0
03C0
03C0
ENDCHAR

STARTCHAR ldbracertbt
ENCODING 174
SWIDTH 570 0
DWIDTH 16 0
BBX 16 30 0 -6
BITMAP
03C0
03C0
03C0
03C0
03C0
03C0
03C0
03C0
03C0
03C0
03C0
03C0
03C0
03C0
03C0
03C0
03C0
03C0
03C0
03C0
03C0
03C0
03C0
07C0
7FC0
7FC0
7F80
7F00
0000
0000
ENDCHAR

STARTCHAR ldbracelftmid
ENCODING 175
SWIDTH 570 0
DWIDTH 16 0
BBX 16 30 0 -6
BITMAP
03C0
03C0
03C0
03C0
03C0
03C0
03C0
03C0
03C0
03C0
07C0
0F80
1F00
3E00
3E00
1F00
0F80
07C0
03C0
03C0
03C0
03C0
03C0
03C0
03C0
03C0
03C0
03C0
03C0
03C0
ENDCHAR

STARTCHAR ldbracertmid
ENCODING 176
SWIDTH 570 0
DWIDTH 16 0
BBX 16 30 0 -6
BITMAP
03C0
03C0
03C0
03C0
03C0
03C0
03C0
03C0
03C0
03C0
03E0
01F0
00F8
007C
007C
00F8
01F0
03E0
03C0
03C0
03C0
03C0
03C0
03C0
03C0
03C0
03C0
03C0
03C0
03C0
ENDCHAR

STARTCHAR ldsigmalfttp
ENCODING 177
SWIDTH 570 0
DWIDTH 16 0
BBX 16 30 0 -6
BITMAP
0000
0000
0000
0000
0000
0000
0000
0000
0000
0000
07FF
07FF
03FF
03C0
01C0
01E0
01E0
00F0
00F0
0078
0078
0038
003C
003C
001E
001E
000F
000F
0007
0007
ENDCHAR

STARTCHAR ldsigmalftbt
ENCODING 178
SWIDTH 570 0
DWIDTH 16 0
BBX 16 30 0 -6
BITMAP
0007
000F
001F
001E
003C
007C
0078
00F8
01F0
01E0
03FF
03FF
03FF
0000
0000
0000
0000
0000
0000
0000
0000
0000
0000
0000
0000
0000
0000
0000
0000
0000
ENDCHAR

STARTCHAR ldbackslash
ENCODING 179
SWIDTH 570 0
DWIDTH 16 0
BBX 16 30 0 -6
BITMAP
E000
E000
F000
7000
7800
7800
3C00
3C00
1E00
1E00
0E00
0F00
0780
0780
03C0
03C0
01E0
01E0
00F0
00F0
0070
0078
0038
003C
001E
001E
000E
000F
0007
0007
ENDCHAR

STARTCHAR ldslash
ENCODING 180
SWIDTH 570 0
DWIDTH 16 0
BBX 16 30 0 -6
BITMAP
0007
0007
000F
000F
001E
001E
003C
003C
0078
0078
0070
00F0
01E0
01E0
03C0
03C0
0780
0780
0F00
0F00
1E00
1E00
3C00
3800
7800
F800
F000
E000
E000
C000
ENDCHAR

STARTCHAR ldsigmarttp
ENCODING 181
SWIDTH 570 0
DWIDTH 16 0
BBX 16 30 0 -6
BITMAP
0000
0000
0000
0000
0000
0000
0000
0000
0000
0000
FFFC
FFFC
FFFC
001C
001C
001C
001C
0000
0000
0000
0000
0000
0000
0000
0000
0000
0000
0000
0000
0000
ENDCHAR

STARTCHAR ldsigmartbt
ENCODING 182
SWIDTH 570 0
DWIDTH 16 0
BBX 16 30 0 -6
BITMAP
0000
0000
0000
0000
0000
0000
001C
001C
001C
001C
FFFC
FFFC
FFFC
0000
0000
0000
0000
0000
0000
0000
0000
0000
0000
0000
0000
0000
0000
0000
0000
0000
ENDCHAR

STARTCHAR ldsigmamid
ENCODING 183
SWIDTH 570 0
DWIDTH 16 0
BBX 16 30 0 -6
BITMAP
C000
E000
E000
F000
F000
7800
3C00
3C00
1E00
1E00
0F00
0F00
0780
0380
03C0
03C0
0780
0780
0F00
0F00
0E00
1E00
3C00
3C00
7800
7000
F000
E000
E000
C000
ENDCHAR

STARTCHAR lessequal
ENCODING 188
SWIDTH 570 0
DWIDTH 16 0
BBX 16 30 0 -6
BITMAP
0000
0000
0000
0000
0000
0000
0000
0078
00F0
01E0
03C0
0780
0F00
1E00
0F00
0780
03C0
01E0
00F0
0078
0000
3FFC
3FFC
3FFC
0000
0000
0000
0000
0000
0000
ENDCHAR

STARTCHAR notequal
ENCODING 189
SWIDTH 570 0
DWIDTH 16 0
BBX 16 30 0 -6
BITMAP
0000
0000
0000
0000
0000
0000
0000
000E
001C
0038
7FFE
7FFE
7FFE
00E0
01C0
0380
7FFE
7FFE
7FFE
1C00
3800
7000
0000
0000
0000
0000
0000
0000
0000
0000
ENDCHAR

STARTCHAR greaterequal
ENCODING 190
SWIDTH 570 0
DWIDTH 16 0
BBX 16 30 0 -6
BITMAP
0000
0000
0000
0000
0000
0000
0000
1E00
0F00
0780
03C0
01E0
00F0
0078
00F0
01E0
03C0
0780
0F00
1E00
0000
3FFC
3FFC
3FFC
0000
0000
0000
0000
0000
0000
ENDCHAR

STARTCHAR integral
ENCODING 191
SWIDTH 570 0
DWIDTH 16 0
BBX 16 30 0 -6
BITMAP
0000
0000
00F0
01F8
03EC
03CC
03C0
03C0
03C0
03C0
03C0
03C0
03C0
03C0
03C0
03C0
03C0
03C0
03C0
03C0
03C0
03C0
33C0
37C0
1F80
0F00
0000
0000
0000
0000
ENDCHAR

STARTCHAR therefore
ENCODING 192
SWIDTH 570 0
DWIDTH 16 0
BBX 16 30 0 -6
BITMAP
0000
0000
0000
0000
0000
0000
0000
0000
0000
0000
03C0
03C0
03C0
03C0
0000
0000
0000
0000
0000
0000
3C3C
3C3C
3C3C
3C3C
0000
0000
0000
0000
0000
0000
ENDCHAR

STARTCHAR proportional
ENCODING 193
SWIDTH 570 0
DWIDTH 16 0
BBX 16 30 0 -6
BITMAP
0000
0000
0000
0000
0000
0000
0000
0000
0000
0000
0000
0000
0E0C
1F1E
1FBE
3FF8
3BF0
31E0
31E0
3BF0
3FF8
1FBE
1F1E
0E0C
0000
0000
0000
0000
0000
0000
ENDCHAR

STARTCHAR infinity
ENCODING 194
SWIDTH 570 0
DWIDTH 16 0
BBX 16 30 0 -6
BITMAP
0000
0000
0000
0000
0000
0000
0000
0000
0000
0000
0000
0000
0E70
1FF8
1FF8
3FFC
3BDC
318C
318C
3BDC
3FFC
1FF8
1FF8
0E70
0000
0000
0000
0000
0000
0000
ENDCHAR

STARTCHAR divide
ENCODING 195
SWIDTH 570 0
DWIDTH 16 0
BBX 16 30 0 -6
BITMAP
0000
0000
0000
0000
0000
0000
0000
0000
01C0
01C0
01C0
01C0
0000
0000
3FFE
3FFE
3FFE
0000
0000
01C0
01C0
01C0
01C0
0000
0000
0000
0000
0000
0000
0000
ENDCHAR

STARTCHAR Delta
ENCODING 196
SWIDTH 570 0
DWIDTH 16 0
BBX 16 30 0 -6
BITMAP
0000
0000
0000
0000
0000
0000
0000
0000
0000
0000
0180
03C0
07E0
0FF0
1E78
3C3C
781E
700E
700E
700E
7FFE
7FFE
7FFE
0000
0000
0000
0000
0000
0000
0000
ENDCHAR

STARTCHAR gradient
ENCODING 197
SWIDTH 570 0
DWIDTH 16 0
BBX 16 30 0 -6
BITMAP
0000
0000
0000
0000
0000
0000
0000
0000
0000
0000
7FFE
7FFE
7FFE
700E
700E
700E
781E
3C3C
1E78
0FF0
07E0
03C0
0180
0000
0000
0000
0000
0000
0000
0000
ENDCHAR

STARTCHAR Phi
ENCODING 198
SWIDTH 570 0
DWIDTH 16 0
BBX 16 30 0 -6
BITMAP
0000
0000
0000
0000
0000
0000
07E0
07E0
07E0
0180
0FF0
3FFC
399C
799E
799E
799E
799E
399C
3FFC
0FF0
0180
07E0
07E0
07E0
0000
0000
0000
0000
0000
0000
ENDCHAR

STARTCHAR Gamma
ENCODING 199
SWIDTH 570 0
DWIDTH 16 0
BBX 16 30 0 -6
BITMAP
0000
0000
0000
0000
0000
0000
3FFC
3FFC
3FFC
0F0C
0F0C
0F0C
0F00
0F00
0F00
0F00
0F00
0F00
0F00
0F00
0F00
3FC0
3FC0
3FC0
0000
0000
0000
0000
0000
0000
ENDCHAR

STARTCHAR similar
ENCODING 200
SWIDTH 570 0
DWIDTH 16 0
BBX 16 30 0 -6
BITMAP
0000
0000
0000
0000
0000
0000
0000
0000
0000
0000
0000
0000
0E0C
1F0C
3FDC
3FFC
33FC
31F8
3070
0000
0000
0000
0000
0000
0000
0000
0000
0000
0000
0000
ENDCHAR

STARTCHAR approxequal
ENCODING 201
SWIDTH 570 0
DWIDTH 16 0
BBX 16 30 0 -6
BITMAP
0000
0000
0000
0000
0000
0000
0000
0000
0000
0000
0000
0E0C
1F0C
3FDC
3FFC
33FC
31F8
3070
0000
0000
0000
3FFC
3FFC
3FFC
0000
0000
0000
0000
0000
0000
ENDCHAR

STARTCHAR Theta
ENCODING 202
SWIDTH 570 0
DWIDTH 16 0
BBX 16 30 0 -6
BITMAP
0000
0000
0000
0000
0000
0000
03C0
07E0
0FF0
1E78
1C38
381C
381C
3A5C
3BDC
3BDC
3A5C
381C
381C
1C38
1E78
0FF0
07E0
03C0
0000
0000
0000
0000
0000
0000
ENDCHAR

STARTCHAR multiply
ENCODING 203
SWIDTH 570 0
DWIDTH 16 0
BBX 16 30 0 -6
BITMAP
0000
0000
0000
0000
0000
0000
0000
0000
0000
0000
3018
3838
3C78
1EF0
0FE0
07C0
07C0
0FE0
1EF0
3C78
3838
3018
0000
0000
0000
0000
0000
0000
0000
0000
ENDCHAR

STARTCHAR Lambda
ENCODING 204
SWIDTH 570 0
DWIDTH 16 0
BBX 16 30 0 -6
BITMAP
0000
0000
0000
0000
0000
0000
0180
0180
03C0
03C0
07E0
07E0
0E70
0E70
0E70
1E78
1C38
1C38
1C38
3C3C
381C
381C
781E
781E
0000
0000
0000
0000
0000
0000
ENDCHAR

STARTCHAR arrowdblboth
ENCODING 205
SWIDTH 570 0
DWIDTH 16 0
BBX 16 30 0 -6
BITMAP
0000
0000
0000
0000
0000
0000
0C30
0C30
1C38
1818
3FFC
3FFC
7FFE
700E
F00F
F00F
700E
7FFE
3FFC
3FFC
1818
1818
0C30
0C30
0000
0000
0000
0000
0000
0000
ENDCHAR

STARTCHAR arrowdblright
ENCODING 206
SWIDTH 570 0
DWIDTH 16 0
BBX 16 30 0 -6
BITMAP
0000
0000
0000
0000
0000
0000
0180
01C0
00C0
0060
7FF0
7FF0
7FF8
0038
003C
003C
0038
7FF8
7FF0
7FF0
0060
00C0
01C0
0180
0000
0000
0000
0000
0000
0000
ENDCHAR

STARTCHAR equivalence
ENCODING 207
SWIDTH 570 0
DWIDTH 16 0
BBX 16 30 0 -6
BITMAP
0000
0000
0000
0000
0000
0000
0000
3FFC
3FFC
3FFC
0000
0000
0000
3FFC
3FFC
3FFC
0000
0000
0000
3FFC
3FFC
3FFC
0000
0000
0000
0000
0000
0000
0000
0000
ENDCHAR

STARTCHAR Pi
ENCODING 208
SWIDTH 570 0
DWIDTH 16 0
BBX 16 30 0 -6
BITMAP
0000
0000
0000
0000
0000
0000
7FFE
7FFE
1E78
1E78
1E78
1E78
1E78
1E78
1E78
1E78
1E78
1E78
1E78
1E78
1E78
1E78
1E78
1E78
0000
0000
0000
0000
0000
0000
ENDCHAR

STARTCHAR Psi
ENCODING 209
SWIDTH 570 0
DWIDTH 16 0
BBX 16 30 0 -6
BITMAP
0000
0000
0000
0000
0000
0000
799E
799E
799E
799E
1998
1998
1998
1998
1FF8
1FF8
0FF0
07E0
0180
0180
07E0
07E0
07E0
07E0
0000
0000
0000
0000
0000
0000
ENDCHAR

STARTCHAR Sigma
ENCODING 211
SWIDTH 570 0
DWIDTH 16 0
BBX 16 30 0 -6
BITMAP
0000
0000
0000
0000
0000
0000
3FFC
3FFC
3FFC
3FFC
1E0C
0F0C
0780
03C0
01E0
03C0
0780
0F0C
1E0C
3C0C
3FFC
3FFC
3FFC
3FFC
0000
0000
0000
0000
0000
0000
ENDCHAR

STARTCHAR radical
ENCODING 214
SWIDTH 570 0
DWIDTH 16 0
BBX 16 30 0 -6
BITMAP
0000
0000
0000
0000
0000
0000
0000
0000
0000
0000
0000
0000
000F
001F
003F
007F
60F8
F0F0
F9E0
7FE0
3FC0
1F80
0F00
0F00
0000
0000
0000
0000
0000
0000
ENDCHAR

STARTCHAR Omega
ENCODING 215
SWIDTH 570 0
DWIDTH 16 0
BBX 16 30 0 -6
BITMAP
0000
0000
0000
0000
0000
0000
03C0
0FF0
1FF8
3FFC
3C3C
781E
781E
781E
781E
781E
781E
3C3C
3E7C
1E78
1E78
7E7E
7E7E
7E7E
0000
0000
0000
0000
0000
0000
ENDCHAR

STARTCHAR Xi
ENCODING 216
SWIDTH 570 0
DWIDTH 16 0
BBX 16 30 0 -6
BITMAP
0000
0000
0000
0000
0000
0000
0000
3FFC
3FFC
3FFC
3FFC
0000
0000
0000
0FF0
0FF0
0FF0
0000
0000
0000
3FFC
3FFC
3FFC
3FFC
0000
0000
0000
0000
0000
0000
ENDCHAR

STARTCHAR Upsilon1
ENCODING 217
SWIDTH 570 0
DWIDTH 16 0
BBX 16 30 0 -6
BITMAP
0000
0000
0000
0000
0000
0000
F00F
F81F
781E
3C3C
1C38
1E78
0FF0
07E0
07E0
03C0
03C0
03C0
03C0
03C0
03C0
03C0
0FF0
0FF0
0000
0000
0000
0000
0000
0000
ENDCHAR

STARTCHAR propersubset
ENCODING 218
SWIDTH 570 0
DWIDTH 16 0
BBX 16 30 0 -6
BITMAP
0000
0000
0000
0000
0000
0000
0000
0000
0000
0000
07FC
1FFC
1FFC
3FFC
3C00
3C00
3C00
3C00
3C00
3C00
3FFC
1FFC
1FFC
07FC
0000
0000
0000
0000
0000
0000
ENDCHAR

STARTCHAR propersuperset
ENCODING 219
SWIDTH 570 0
DWIDTH 16 0
BBX 16 30 0 -6
BITMAP
0000
0000
0000
0000
0000
0000
0000
0000
0000
0000
3FE0
3FF8
3FF8
3FFC
003C
003C
003C
003C
003C
003C
3FFC
3FF8
3FF8
3FE0
0000
0000
0000
0000
0000
0000
ENDCHAR

STARTCHAR intersection
ENCODING 220
SWIDTH 570 0
DWIDTH 16 0
BBX 16 30 0 -6
BITMAP
0000
0000
0000
0000
0000
0000
0000
0000
0000
0000
07E0
1FF8
1FF8
3FFC
3C3C
3C3C
3C3C
3C3C
3C3C
3C3C
3C3C
3C3C
3C3C
3C3C
0000
0000
0000
0000
0000
0000
ENDCHAR

STARTCHAR union
ENCODING 221
SWIDTH 570 0
DWIDTH 16 0
BBX 16 30 0 -6
BITMAP
0000
0000
0000
0000
0000
0000
0000
0000
0000
0000
3C3C
3C3C
3C3C
3C3C
3C3C
3C3C
3C3C
3C3C
3C3C
3C3C
3FFC
1FF8
1FF8
07E0
0000
0000
0000
0000
0000
0000
ENDCHAR

STARTCHAR logicaland
ENCODING 222
SWIDTH 570 0
DWIDTH 16 0
BBX 16 30 0 -6
BITMAP
0000
0000
0000
0000
0000
0000
0000
0000
0000
0000
0000
0180
03C0
07E0
0FF0
1E78
1E78
3E7C
3C3C
7C3E
781E
781E
781E
0000
0000
0000
0000
0000
0000
0000
ENDCHAR

STARTCHAR logicalor
ENCODING 223
SWIDTH 570 0
DWIDTH 16 0
BBX 16 30 0 -6
BITMAP
0000
0000
0000
0000
0000
0000
0000
0000
0000
0000
0000
0000
781E
781E
7C3E
3C3C
3C3C
1E78
1E78
0E70
0FF0
07E0
03C0
0180
0000
0000
0000
0000
0000
0000
ENDCHAR

STARTCHAR logicalnot
ENCODING 224
SWIDTH 570 0
DWIDTH 16 0
BBX 16 30 0 -6
BITMAP
0000
0000
0000
0000
0000
0000
0000
0000
0000
0000
0000
1FFC
1FFC
1FFC
001C
001C
001C
0000
0000
0000
0000
0000
0000
0000
0000
0000
0000
0000
0000
0000
ENDCHAR

STARTCHAR alpha
ENCODING 225
SWIDTH 570 0
DWIDTH 16 0
BBX 16 30 0 -6
BITMAP
0000
0000
0000
0000
0000
0000
0000
0000
0000
0000
0000
0786
1FCE
1FFE
3CFE
387C
7878
7878
7878
7878
3CFC
3FFE
1FCE
0F86
0000
0000
0000
0000
0000
0000
ENDCHAR

STARTCHAR beta
ENCODING 226
SWIDTH 570 0
DWIDTH 16 0
BBX 16 30 0 -6
BITMAP
0000
0000
0000
0000
0000
0000
007C
01FE
01FE
03CE
038E
039C
071C
07F8
07F0
0FF8
0FFC
0E3C
1E1C
1C1C
1E3C
3FF8
3FF8
39F0
0000
0000
0000
0000
0000
0000
ENDCHAR

STARTCHAR chi
ENCODING 227
SWIDTH 570 0
DWIDTH 16 0
BBX 16 30 0 -6
BITMAP
0000
0000
0000
0000
0000
0000
0000
0000
0000
0000
0000
3C1C
3C1C
1E1C
1E3C
0F38
0FB8
03F0
03E0
01E0
01F0
03F0
07F0
0F78
1E38
1C38
3C38
3838
0000
0000
ENDCHAR

STARTCHAR delta
ENCODING 228
SWIDTH 570 0
DWIDTH 16 0
BBX 16 30 0 -6
BITMAP
0000
0000
0000
0000
0000
0000
03E0
07F0
07F8
0E38
0E00
0F00
07C0
07F0
0FF0
0E78
1C38
1C38
1C38
1C38
1E78
0FF0
0FF0
03C0
0000
0000
0000
0000
0000
0000
ENDCHAR

STARTCHAR epsilon
ENCODING 229
SWIDTH 570 0
DWIDTH 16 0
BBX 16 30 0 -6
BITMAP
0000
0000
0000
0000
0000
0000
0000
0000
0000
0000
0000
07F8
0FF8
0FF8
1C00
1C00
1FE0
1FE0
1FE0
1C00
1C00
0FF8
0FF8
07F8
0000
0000
0000
0000
0000
0000
ENDCHAR

STARTCHAR phi
ENCODING 230
SWIDTH 570 0
DWIDTH 16 0
BBX 16 30 0 -6
BITMAP
0000
0000
0000
0000
0000
0000
0000
0000
0000
0030
0030
07F0
1FF8
1FF8
3C7C
38DC
38DC
399C
399C
3B1C
3E3C
1FF8
1FF8
0FE0
0C00
0C00
0000
0000
0000
0000
ENDCHAR

STARTCHAR gamma
ENCODING 231
SWIDTH 570 0
DWIDTH 16 0
BBX 16 30 0 -6
BITMAP
0000
0000
0000
0000
0000
0000
0000
0000
0000
0000
0000
1C3C
3E3C
7E3C
6E3C
0F3C
0738
0738
0778
03F8
03F0
03E0
03E0
07C0
0780
0F00
1E00
1E00
0C00
0000
ENDCHAR

STARTCHAR eta
ENCODING 232
SWIDTH 570 0
DWIDTH 16 0
BBX 16 30 0 -6
BITMAP
0000
0000
0000
0000
0000
0000
0000
0000
0000
0000
0000
0000
70F0
7BF8
1FFC
1F7C
1E3C
1E3C
1E3C
1E3C
1E3C
1E3C
1E3C
1E3C
003C
003C
003C
003C
0000
0000
ENDCHAR

STARTCHAR iota
ENCODING 233
SWIDTH 570 0
DWIDTH 16 0
BBX 16 30 0 -6
BITMAP
0000
0000
0000
0000
0000
0000
0000
0000
0000
0000
0000
1E00
1E00
1E00
1E00
1E00
1E00
1E00
1E38
1E38
1E38
0FF8
0FF0
07E0
0000
0000
0000
0000
0000
0000
ENDCHAR

STARTCHAR theta
ENCODING 234
SWIDTH 570 0
DWIDTH 16 0
BBX 16 30 0 -6
BITMAP
0000
0000
0000
0000
0000
0000
07E0
0FF0
0FF0
1E78
1C38
1C38
1C38
1C38
1FF8
1FF8
1C38
1C38
1C38
1C38
1E78
0FF0
0FF0
07E0
0000
0000
0000
0000
0000
0000
ENDCHAR

STARTCHAR kappa
ENCODING 235
SWIDTH 570 0
DWIDTH 16 0
BBX 16 30 0 -6
BITMAP
0000
0000
0000
0000
0000
0000
0000
0000
0000
0000
0000
7C1C
7E3C
1E7C
1E78
1EF0
1FE0
1FE0
1FF0
1EF0
1E78
1E7C
1E3C
1E3C
0000
0000
0000
0000
0000
0000
ENDCHAR

STARTCHAR lambda
ENCODING 236
SWIDTH 570 0
DWIDTH 16 0
BBX 16 30 0 -6
BITMAP
0000
0000
0000
0000
0000
0000
0000
0000
0E00
1F00
1F80
1BC0
11C0
01E0
00E0
00F0
01F0
03F8
07F8
0FBC
1F3C
3E1C
3C1E
381E
0000
0000
0000
0000
0000
0000
ENDCHAR

STARTCHAR nu
ENCODING 238
SWIDTH 570 0
DWIDTH 16 0
BBX 16 30 0 -6
BITMAP
0000
0000
0000
0000
0000
0000
0000
0000
0000
0000
0000
7C1E
7C1E
1E1E
1E1E
1E1E
0E1E
0E1E
0F3C
0F3C
0778
07F0
07E0
07C0
0000
0000
0000
0000
0000
0000
ENDCHAR

STARTCHAR partialdiff
ENCODING 239
SWIDTH 570 0
DWIDTH 16 0
BBX 16 30 0 -6
BITMAP
0000
0000
0000
0000
0000
0000
3800
3E00
3F80
0FC0
03E0
03E0
07F0
0FF0
0E78
1C38
1C38
1C38
1C38
1C38
1E78
0FF0
0FF0
03C0
0000
0000
0000
0000
0000
0000
ENDCHAR

STARTCHAR pi
ENCODING 240
SWIDTH 570 0
DWIDTH 16 0
BBX 16 30 0 -6
BITMAP
0000
0000
0000
0000
0000
0000
0000
0000
0000
0000
0000
7FFE
7FFE
1E78
1E78
1E78
1E78
1E78
1E78
1E78
1E78
1E78
7C78
7878
0000
0000
0000
0000
0000
0000
ENDCHAR

STARTCHAR psi
ENCODING 241
SWIDTH 570 0
DWIDTH 16 0
BBX 16 30 0 -6
BITMAP
0000
0000
0000
0000
0000
0000
0000
0000
0000
01C0
01C0
39CE
39CE
39CE
39CE
39CE
39CE
39CE
39CE
39CE
3DDE
1FFC
1FFC
07F0
01C0
01C0
01C0
01C0
0000
0000
ENDCHAR

STARTCHAR rho
ENCODING 242
SWIDTH 570 0
DWIDTH 16 0
BBX 16 30 0 -6
BITMAP
0000
0000
0000
0000
0000
0000
0000
0000
0000
0000
0000
07C0
0FF0
0FF8
1E78
1E3C
1E3C
1E3C
1E3C
1E3C
1E78
1FF8
1FF0
1F80
1E00
1E00
1E00
0000
0000
0000
ENDCHAR

STARTCHAR sigma
ENCODING 243
SWIDTH 570 0
DWIDTH 16 0
BBX 16 30 0 -6
BITMAP
0000
0000
0000
0000
0000
0000
0000
0000
0000
0000
0000
01FE
07FE
0FE0
0FF0
1E70
1C38
1C38
1C38
1C38
1E78
0FF0
0FF0
07E0
0000
0000
0000
0000
0000
0000
ENDCHAR

STARTCHAR tau
ENCODING 244
SWIDTH 570 0
DWIDTH 16 0
BBX 16 30 0 -6
BITMAP
0000
0000
0000
0000
0000
0000
0000
0000
0000
000C
000C
0FFC
1FFC
3FF8
33C0
33C0
03C0
03C0
03C0
03C0
03C0
03C0
03F0
01F0
0000
0000
0000
0000
0000
0000
ENDCHAR

STARTCHAR florin
ENCODING 246
SWIDTH 570 0
DWIDTH 16 0
BBX 16 30 0 -6
BITMAP
0000
0000
0000
0000
00F8
01FC
03FE
038E
0786
0786
0780
1FF0
1FF0
0780
0780
0780
0780
0780
0780
0780
6780
6780
7780
7F00
3F00
1E00
0000
0000
0000
0000
ENDCHAR

STARTCHAR omega
ENCODING 247
SWIDTH 570 0
DWIDTH 16 0
BBX 16 30 0 -6
BITMAP
0000
0000
0000
0000
0000
0000
0000
0000
0000
0000
0000
1818
381C
381C
799E
718E
718E
718E
718E
718E
7BDE
3FFC
3FFC
1E78
0000
0000
0000
0000
0000
0000
ENDCHAR

STARTCHAR xi
ENCODING 248
SWIDTH 570 0
DWIDTH 16 0
BBX 16 30 0 -6
BITMAP
0000
0000
0F00
1F00
1800
1E00
0FF8
07FC
0FFC
0E1C
1C00
1C00
1C00
1E00
0FE0
07E0
0FE0
1E00
3C00
3C00
3E00
3FF8
1FFC
0FFC
003C
0038
01F0
01E0
0000
0000
ENDCHAR

STARTCHAR upsilon
ENCODING 249
SWIDTH 570 0
DWIDTH 16 0
BBX 16 30 0 -6
BITMAP
0000
0000
0000
0000
0000
0000
0000
0000
0000
0000
0000
1C7C
3E7E
2E1E
0E0E
0F0E
0F0E
0F1E
071E
073C
07F8
07F8
07F0
03C0
0000
0000
0000
0000
0000
0000
ENDCHAR

STARTCHAR zeta
ENCODING 250
SWIDTH 570 0
DWIDTH 16 0
BBX 16 30 0 -6
BITMAP
0000
0000
0000
0000
0000
0300
0700
0C00
0FF8
07F8
01F8
03F8
0780
0F00
1E00
1C00
3C00
3800
3800
3C00
3FF0
3FF8
1FF8
0FF8
0070
00E0
03C0
0380
0000
0000
ENDCHAR

STARTCHAR arrowleft
ENCODING 251
SWIDTH 570 0
DWIDTH 16 0
BBX 16 30 0 -6
BITMAP
0000
0000
0000
0000
0000
0000
0000
0000
0100
0300
0700
0F00
1F00
3FFF
7FFF
3FFF
1F00
0F00
0700
0300
0100
0000
0000
0000
0000
0000
0000
0000
0000
0000
ENDCHAR

STARTCHAR arrowup
ENCODING 252
SWIDTH 570 0
DWIDTH 16 0
BBX 16 30 0 -6
BITMAP
0000
0000
0000
0000
0000
0000
0000
0180
03C0
07E0
0FF0
1FF8
3FFC
7FFE
03C0
03C0
03C0
03C0
03C0
03C0
03C0
03C0
0000
0000
0000
0000
0000
0000
0000
0000
ENDCHAR

STARTCHAR arrowright
ENCODING 253
SWIDTH 570 0
DWIDTH 16 0
BBX 16 30 0 -6
BITMAP
0000
0000
0000
0000
0000
0000
0000
0000
0080
00C0
00E0
00F0
00F8
FFFC
FFFE
FFFC
00F8
00F0
00E0
00C0
0080
0000
0000
0000
0000
0000
0000
0000
0000
0000
ENDCHAR

STARTCHAR arrowdown
ENCODING 254
SWIDTH 570 0
DWIDTH 16 0
BBX 16 30 0 -6
BITMAP
0000
0000
0000
0000
0000
0000
0000
0000
03C0
03C0
03C0
03C0
03C0
03C0
03C0
03C0
7FFE
3FFC
1FF8
0FF0
07E0
03C0
0180
0000
0000
0000
0000
0000
0000
0000
ENDCHAR
ENDFONT
